<mxfile host="app.diagrams.net" modified="2024-06-11T02:22:29.896Z" agent="Mozilla/5.0 (Windows NT 10.0; Win64; x64) AppleWebKit/537.36 (KHTML, like Gecko) Chrome/125.0.0.0 Safari/537.36" etag="JZnPfULJ-Myg5NWs5_Tz" version="24.5.2" type="github">
  <diagram name="第 1 页" id="CWwmlCPiOaKa8b5ezwnc">
    <mxGraphModel dx="594" dy="1620" grid="1" gridSize="10" guides="1" tooltips="1" connect="1" arrows="1" fold="1" page="1" pageScale="1" pageWidth="827" pageHeight="1169" math="0" shadow="0">
      <root>
        <mxCell id="0" />
        <mxCell id="1" parent="0" />
      </root>
    </mxGraphModel>
  </diagram>
</mxfile>
